<svg width="131" height="50" viewBox="0 0 131 50" fill="none" xmlns="http://www.w3.org/2000/svg">
<rect width="131" height="50" rx="8" fill="#DC2626"/>
<path d="M27.4588 24.3281H25.5923C25.5582 24.0866 25.4886 23.8722 25.3835 23.6847C25.2784 23.4943 25.1435 23.3324 24.9787 23.1989C24.8139 23.0653 24.6236 22.9631 24.4077 22.892C24.1946 22.821 23.9631 22.7855 23.7131 22.7855C23.2614 22.7855 22.8679 22.8977 22.5327 23.1222C22.1974 23.3437 21.9375 23.6676 21.7528 24.0938C21.5682 24.517 21.4759 25.0312 21.4759 25.6364C21.4759 26.2585 21.5682 26.7812 21.7528 27.2045C21.9403 27.6278 22.2017 27.9474 22.5369 28.1634C22.8722 28.3793 23.2599 28.4872 23.7003 28.4872C23.9474 28.4872 24.1761 28.4545 24.3864 28.3892C24.5994 28.3239 24.7884 28.2287 24.9531 28.1037C25.1179 27.9759 25.2543 27.821 25.3622 27.6392C25.473 27.4574 25.5497 27.25 25.5923 27.017L27.4588 27.0256C27.4105 27.4261 27.2898 27.8125 27.0966 28.1847C26.9063 28.554 26.6491 28.8849 26.3253 29.1776C26.0043 29.4673 25.6207 29.6974 25.1747 29.8679C24.7315 30.0355 24.2301 30.1193 23.6705 30.1193C22.892 30.1193 22.196 29.9432 21.5824 29.5909C20.9716 29.2386 20.4886 28.7287 20.1335 28.0611C19.7812 27.3935 19.6051 26.5852 19.6051 25.6364C19.6051 24.6847 19.7841 23.875 20.142 23.2074C20.5 22.5398 20.9858 22.0312 21.5994 21.6818C22.2131 21.3295 22.9034 21.1534 23.6705 21.1534C24.1761 21.1534 24.6449 21.2244 25.0767 21.3665C25.5114 21.5085 25.8963 21.7159 26.2315 21.9886C26.5668 22.2585 26.8395 22.5895 27.0497 22.9815C27.2628 23.3736 27.3991 23.8224 27.4588 24.3281ZM30.5632 26.2159V30H28.7479V21.2727H30.5121V24.6094H30.5888C30.7365 24.223 30.9751 23.9205 31.3047 23.7017C31.6342 23.4801 32.0476 23.3693 32.5447 23.3693C32.9993 23.3693 33.3956 23.4688 33.7337 23.6676C34.0746 23.8636 34.3388 24.1463 34.5263 24.5156C34.7166 24.8821 34.8104 25.321 34.8075 25.8324V30H32.9922V26.1562C32.995 25.7528 32.8928 25.4389 32.6854 25.2145C32.4808 24.9901 32.1939 24.8778 31.8246 24.8778C31.5774 24.8778 31.3587 24.9304 31.1683 25.0355C30.9808 25.1406 30.8331 25.294 30.7251 25.4957C30.62 25.6946 30.5661 25.9347 30.5632 26.2159ZM39.2191 30.1278C38.5458 30.1278 37.9663 29.9915 37.4805 29.7188C36.9975 29.4432 36.6254 29.054 36.364 28.5511C36.1026 28.0455 35.9719 27.4474 35.9719 26.7571C35.9719 26.0838 36.1026 25.4929 36.364 24.9844C36.6254 24.4759 36.9933 24.0795 37.4677 23.7955C37.945 23.5114 38.5046 23.3693 39.1467 23.3693C39.5785 23.3693 39.9805 23.4389 40.3526 23.5781C40.7276 23.7145 41.0543 23.9205 41.3327 24.196C41.614 24.4716 41.8327 24.8182 41.989 25.2358C42.1452 25.6506 42.2234 26.1364 42.2234 26.6932V27.1918H36.6964V26.0668H40.5146C40.5146 25.8054 40.4577 25.5739 40.3441 25.3722C40.2305 25.1705 40.0728 25.0128 39.8711 24.8991C39.6722 24.7827 39.4407 24.7244 39.1765 24.7244C38.9009 24.7244 38.6566 24.7884 38.4435 24.9162C38.2333 25.0412 38.0685 25.2102 37.9492 25.4233C37.8299 25.6335 37.7688 25.8679 37.766 26.1264V27.196C37.766 27.5199 37.8256 27.7997 37.945 28.0355C38.0671 28.2713 38.239 28.4531 38.4606 28.581C38.6822 28.7088 38.945 28.7727 39.2489 28.7727C39.4506 28.7727 39.6353 28.7443 39.8029 28.6875C39.9705 28.6307 40.114 28.5455 40.2333 28.4318C40.3526 28.3182 40.4435 28.179 40.506 28.0142L42.185 28.125C42.0998 28.5284 41.9251 28.8807 41.6609 29.1818C41.3995 29.4801 41.0614 29.7131 40.6467 29.8807C40.2347 30.0455 39.7589 30.1278 39.2191 30.1278ZM46.3654 30.1278C45.695 30.1278 45.1183 29.9858 44.6353 29.7017C44.1552 29.4148 43.7859 29.017 43.5273 28.5085C43.2717 28 43.1438 27.4148 43.1438 26.7528C43.1438 26.0824 43.2731 25.4943 43.5316 24.9886C43.793 24.4801 44.1637 24.0838 44.6438 23.7997C45.1239 23.5128 45.695 23.3693 46.3569 23.3693C46.9279 23.3693 47.4279 23.473 47.8569 23.6804C48.2859 23.8878 48.6254 24.179 48.8754 24.554C49.1254 24.929 49.2631 25.3693 49.2887 25.875H47.5756C47.5273 25.5483 47.3995 25.2855 47.1921 25.0866C46.9876 24.8849 46.7191 24.7841 46.3867 24.7841C46.1055 24.7841 45.8597 24.8608 45.6495 25.0142C45.4421 25.1648 45.2802 25.3849 45.1637 25.6747C45.0472 25.9645 44.989 26.3153 44.989 26.7273C44.989 27.1449 45.0458 27.5 45.1594 27.7926C45.2759 28.0852 45.4393 28.3082 45.6495 28.4616C45.8597 28.6151 46.1055 28.6918 46.3867 28.6918C46.5941 28.6918 46.7802 28.6491 46.945 28.5639C47.1126 28.4787 47.2504 28.3551 47.3583 28.1932C47.4691 28.0284 47.5415 27.831 47.5756 27.6009H49.2887C49.2603 28.1009 49.1239 28.5412 48.8796 28.9219C48.6381 29.2997 48.3043 29.5952 47.8782 29.8082C47.4521 30.0213 46.9478 30.1278 46.3654 30.1278ZM52.0959 28.1165L52.1001 25.9389H52.3643L54.4609 23.4545H56.5447L53.728 26.7443H53.2976L52.0959 28.1165ZM50.451 30V21.2727H52.2663V30H50.451ZM54.5419 30L52.6158 27.1491L53.826 25.8665L56.6683 30H54.5419ZM60.1232 30.1278C59.4613 30.1278 58.8888 29.9872 58.4059 29.706C57.9258 29.4219 57.555 29.027 57.2937 28.5213C57.0323 28.0128 56.9016 27.4233 56.9016 26.7528C56.9016 26.0767 57.0323 25.4858 57.2937 24.9801C57.555 24.4716 57.9258 24.0767 58.4059 23.7955C58.8888 23.5114 59.4613 23.3693 60.1232 23.3693C60.7852 23.3693 61.3562 23.5114 61.8363 23.7955C62.3192 24.0767 62.6914 24.4716 62.9528 24.9801C63.2141 25.4858 63.3448 26.0767 63.3448 26.7528C63.3448 27.4233 63.2141 28.0128 62.9528 28.5213C62.6914 29.027 62.3192 29.4219 61.8363 29.706C61.3562 29.9872 60.7852 30.1278 60.1232 30.1278ZM60.1317 28.7216C60.4329 28.7216 60.6843 28.6364 60.886 28.4659C61.0877 28.2926 61.2397 28.0568 61.342 27.7585C61.4471 27.4602 61.4996 27.1207 61.4996 26.7401C61.4996 26.3594 61.4471 26.0199 61.342 25.7216C61.2397 25.4233 61.0877 25.1875 60.886 25.0142C60.6843 24.8409 60.4329 24.7543 60.1317 24.7543C59.8278 24.7543 59.5721 24.8409 59.3647 25.0142C59.1602 25.1875 59.0053 25.4233 58.9002 25.7216C58.7979 26.0199 58.7468 26.3594 58.7468 26.7401C58.7468 27.1207 58.7979 27.4602 58.9002 27.7585C59.0053 28.0568 59.1602 28.2926 59.3647 28.4659C59.5721 28.6364 59.8278 28.7216 60.1317 28.7216ZM68.7227 27.2131V23.4545H70.538V30H68.7951V28.8111H68.7269C68.5792 29.1946 68.3335 29.5028 67.9897 29.7358C67.6488 29.9687 67.2326 30.0852 66.7411 30.0852C66.3036 30.0852 65.9187 29.9858 65.5863 29.7869C65.2539 29.5881 64.994 29.3054 64.8065 28.9389C64.6218 28.5724 64.5281 28.1335 64.5252 27.6222V23.4545H66.3406V27.2983C66.3434 27.6847 66.4471 27.9901 66.6516 28.2145C66.8562 28.4389 67.1303 28.5511 67.4741 28.5511C67.6928 28.5511 67.8974 28.5014 68.0877 28.402C68.2781 28.2997 68.4315 28.1491 68.5479 27.9503C68.6673 27.7514 68.7255 27.5057 68.7227 27.2131ZM75.4716 23.4545V24.8182H71.5298V23.4545H75.4716ZM72.4247 21.8864H74.2401V27.9886C74.2401 28.1562 74.2656 28.2869 74.3168 28.3807C74.3679 28.4716 74.4389 28.5355 74.5298 28.5724C74.6236 28.6094 74.7315 28.6278 74.8537 28.6278C74.9389 28.6278 75.0241 28.6207 75.1094 28.6065C75.1946 28.5895 75.2599 28.5767 75.3054 28.5682L75.5909 29.919C75.5 29.9474 75.3722 29.9801 75.2074 30.017C75.0426 30.0568 74.8423 30.081 74.6065 30.0895C74.169 30.1065 73.7855 30.0483 73.456 29.9148C73.1293 29.7812 72.875 29.5739 72.6932 29.2926C72.5114 29.0114 72.4219 28.6562 72.4247 28.2273V21.8864Z" fill="black"/>
<path d="M95.375 34.25C95.375 34.6208 95.265 34.9834 95.059 35.2917C94.853 35.6 94.5601 35.8404 94.2175 35.9823C93.8749 36.1242 93.4979 36.1613 93.1342 36.089C92.7705 36.0166 92.4364 35.838 92.1742 35.5758C91.912 35.3136 91.7334 34.9795 91.661 34.6158C91.5887 34.2521 91.6258 33.8751 91.7677 33.5325C91.9096 33.1899 92.15 32.897 92.4583 32.691C92.7666 32.485 93.1292 32.375 93.5 32.375C93.9973 32.375 94.4742 32.5725 94.8258 32.9242C95.1775 33.2758 95.375 33.7527 95.375 34.25ZM103.25 32.375C102.879 32.375 102.517 32.485 102.208 32.691C101.9 32.897 101.66 33.1899 101.518 33.5325C101.376 33.8751 101.339 34.2521 101.411 34.6158C101.483 34.9795 101.662 35.3136 101.924 35.5758C102.186 35.838 102.52 36.0166 102.884 36.089C103.248 36.1613 103.625 36.1242 103.968 35.9823C104.31 35.8404 104.603 35.6 104.809 35.2917C105.015 34.9834 105.125 34.6208 105.125 34.25C105.125 33.7527 104.927 33.2758 104.576 32.9242C104.224 32.5725 103.747 32.375 103.25 32.375ZM108.075 21.0809L105.517 29.3966C105.354 29.9343 105.021 30.4051 104.569 30.739C104.117 31.0729 103.569 31.2521 103.007 31.25H93.7747C93.2046 31.2482 92.6505 31.0616 92.1953 30.7183C91.7401 30.3751 91.4085 29.8936 91.25 29.3459L88.0447 18.125H87.125C86.8266 18.125 86.5405 18.0065 86.3295 17.7955C86.1185 17.5845 86 17.2984 86 17C86 16.7016 86.1185 16.4155 86.3295 16.2045C86.5405 15.9935 86.8266 15.875 87.125 15.875H88.3269C88.7341 15.8763 89.1299 16.0095 89.4549 16.2548C89.78 16.5 90.0167 16.8441 90.1297 17.2353L90.8131 19.625H107C107.176 19.625 107.35 19.6663 107.507 19.7456C107.664 19.8249 107.8 19.94 107.905 20.0816C108.01 20.2233 108.08 20.3875 108.109 20.561C108.139 20.7346 108.127 20.9127 108.075 21.0809ZM105.477 21.875H91.4553L93.4137 28.7281C93.4362 28.8065 93.4835 28.8755 93.5487 28.9245C93.6138 28.9736 93.6931 29.0001 93.7747 29H103.007C103.087 29.0002 103.166 28.9746 103.23 28.927C103.295 28.8794 103.343 28.8123 103.366 28.7356L105.477 21.875Z" fill="#2A2C35"/>
</svg>
